<?xml version="1.0" standalone="no"?>
<!DOCTYPE svg PUBLIC "-//W3C//DTD SVG 20010904//EN"
 "http://www.w3.org/TR/2001/REC-SVG-20010904/DTD/svg10.dtd">
<svg version="1.0" xmlns="http://www.w3.org/2000/svg"
 width="512.000000pt" height="512.000000pt" viewBox="0 0 512.000000 512.000000"
 preserveAspectRatio="xMidYMid meet">
<metadata>
Created by potrace 1.11, written by Peter Selinger 2001-2013
</metadata>
<g transform="translate(0.000000,512.000000) scale(0.100000,-0.100000)"
fill="#000000" stroke="none">
<path d="M379 4795 c-1 0 -2 -123 -3 -272 -2 -299 -7 -276 59 -287 17 -3 77
-15 135 -26 58 -12 116 -23 130 -26 14 -3 54 -11 90 -17 l65 -12 1 -1627 1
-1627 -26 -6 c-14 -4 -37 -9 -51 -11 -14 -3 -81 -16 -150 -29 -132 -26 -141
-28 -207 -40 -24 -4 -44 -10 -44 -14 -1 -3 -2 -126 -3 -273 l-2 -268 928 0
928 0 -3 272 -2 273 -160 33 c-88 18 -191 39 -230 48 l-70 15 2 607 c0 334 2
616 2 627 1 19 7 20 244 19 133 -1 247 -2 253 -3 12 -1 880 -1299 873 -1306
-3 -2 -27 -7 -54 -10 -28 -4 -61 -8 -75 -11 -14 -2 -50 -6 -80 -10 -30 -3 -57
-8 -59 -10 -3 -3 -5 -464 -2 -526 1 -17 51 -18 899 -18 l897 0 0 269 c0 148
-2 272 -5 274 -4 4 -209 40 -355 63 -99 15 -87 4 -215 188 -140 200 -126 181
-193 276 -29 41 -79 113 -112 160 -32 47 -75 108 -94 135 -19 28 -151 217
-294 420 -142 204 -265 379 -273 390 -131 183 -164 236 -155 253 5 9 219 296
475 637 634 845 617 823 630 834 6 5 31 12 56 15 49 7 91 14 130 21 27 6 54
10 110 19 19 3 46 8 60 11 13 2 42 7 65 10 22 3 47 8 55 10 13 4 15 43 15 277
l0 273 -898 0 c-797 0 -897 -1 -898 -15 -1 -22 -1 -458 0 -502 1 -28 5 -37 19
-36 28 1 232 -28 238 -35 3 -2 -60 -99 -134 -205 -7 -9 -69 -100 -139 -202
-71 -102 -151 -218 -178 -258 -99 -143 -241 -351 -314 -458 -41 -60 -80 -116
-88 -126 -13 -14 -39 -16 -211 -15 l-196 2 0 603 -1 603 35 9 c19 5 116 25
215 45 99 20 188 38 197 41 15 4 16 30 15 277 l-2 272 -922 0 c-508 0 -924 0
-924 0z"/>
</g>
</svg>
