<?xml version="1.0" standalone="no"?>
<!DOCTYPE svg PUBLIC "-//W3C//DTD SVG 20010904//EN"
 "http://www.w3.org/TR/2001/REC-SVG-20010904/DTD/svg10.dtd">
<svg version="1.0" xmlns="http://www.w3.org/2000/svg"
 width="752.000000pt" height="752.000000pt" viewBox="0 0 752.000000 752.000000"
 preserveAspectRatio="xMidYMid meet">
<metadata>
Created by potrace 1.14, written by Peter Selinger 2001-2017
</metadata>
<g transform="translate(0.000000,752.000000) scale(0.100000,-0.100000)"
fill="#000000" stroke="none">
<path d="M5026 5999 c-78 -19 -181 -67 -561 -264 -93 -48 -253 -130 -355 -182
-102 -53 -252 -130 -335 -173 -82 -43 -253 -130 -380 -195 -126 -65 -279 -143
-340 -175 -60 -32 -227 -117 -370 -190 -510 -260 -547 -284 -691 -427 -170
-171 -303 -397 -393 -670 -38 -115 -48 -156 -72 -298 -36 -214 -39 -283 -25
-455 17 -199 79 -377 231 -660 36 -67 38 -85 20 -175 -12 -55 -11 -140 1 -186
18 -71 71 -169 117 -218 103 -108 292 -194 477 -217 25 -3 72 -9 105 -14 82
-11 365 -5 450 9 39 7 84 14 100 17 48 8 242 60 350 93 197 62 234 69 387 70
74 1 78 2 91 29 30 57 114 335 141 462 3 14 10 43 15 65 21 96 40 183 45 208
2 15 12 62 20 104 23 109 26 124 31 158 3 17 12 66 21 110 8 44 17 112 20 150
3 39 12 100 20 136 20 84 22 131 12 194 -24 139 -152 389 -251 487 -99 98
-195 141 -317 141 -74 0 -93 -3 -152 -30 -134 -62 -228 -189 -241 -327 -3 -27
-20 -30 -35 -6 -12 19 -14 32 -27 130 -5 43 -14 84 -31 140 -28 95 -157 243
-282 324 -105 68 -199 117 -229 120 -61 7 -146 -49 -186 -123 -42 -76 -45
-146 -12 -266 42 -156 20 -243 -93 -358 -51 -52 -207 -168 -245 -183 -9 -3
-31 9 -54 31 -51 48 -112 82 -179 97 -53 12 -54 13 -48 43 23 116 106 308 185
429 22 32 39 60 39 63 0 12 85 126 135 180 196 215 435 318 725 315 246 -3
498 -75 810 -231 329 -164 494 -295 628 -501 57 -87 115 -211 133 -284 5 -23
12 -50 15 -61 27 -107 39 -336 24 -464 -5 -42 -11 -119 -15 -171 -5 -99 -6
-106 -31 -235 -22 -114 -22 -113 -44 -190 -12 -38 -23 -77 -25 -85 -10 -42
-74 -211 -131 -344 -35 -83 -62 -151 -60 -153 11 -11 216 239 216 263 0 3 8
18 19 32 10 15 38 63 62 107 23 44 74 131 111 193 38 62 77 127 87 145 10 18
132 221 271 452 139 231 260 432 269 447 9 15 52 87 96 160 44 73 84 141 90
150 5 10 73 122 150 250 77 128 144 241 150 250 5 10 58 97 116 195 144 241
173 301 209 442 39 149 33 335 -17 496 -77 249 -292 483 -543 592 -96 41 -113
45 -240 48 -78 3 -125 -2 -184 -16z m-1345 -2805 c19 -9 38 -32 49 -57 38 -86
43 -337 9 -462 -6 -22 -12 -44 -13 -50 -9 -49 -55 -156 -87 -204 -48 -72 -98
-118 -158 -143 -69 -30 -269 -118 -326 -143 -71 -32 -91 -37 -144 -37 -65 1
-90 13 -158 76 -59 54 -60 55 -84 39 -13 -10 -28 -22 -34 -28 -20 -23 -86 -66
-121 -81 -20 -9 -66 -16 -103 -16 -130 -1 -251 66 -339 187 -68 94 -264 449
-269 487 -13 93 70 160 151 121 26 -12 49 -44 116 -162 163 -285 188 -320 262
-367 59 -38 90 -32 172 30 87 67 133 87 201 87 74 0 122 -23 181 -87 l52 -55
167 74 c91 42 182 86 201 99 42 28 69 85 99 203 23 90 25 134 12 385 -4 92 82
147 164 104z"/>
</g>
</svg>
